<?xml version="1.0" encoding="UTF-8"?>
<svg xmlns="http://www.w3.org/2000/svg" xmlns:xlink="http://www.w3.org/1999/xlink" viewBox="0 0 50 50" width="50px" height="50px">
<g id="surface55999972">
<path style=" stroke:none;fill-rule:nonzero;fill:rgb(97.647059%,97.647059%,97.647059%);fill-opacity:1;" d="M 16.667969 6.25 C 10.921875 6.25 6.25 10.921875 6.25 16.667969 L 6.25 33.332031 C 6.25 39.078125 10.921875 43.75 16.667969 43.75 L 33.332031 43.75 C 39.078125 43.75 43.75 39.078125 43.75 33.332031 L 43.75 16.667969 C 43.75 10.921875 39.078125 6.25 33.332031 6.25 Z M 16.667969 10.417969 L 33.332031 10.417969 C 36.777344 10.417969 39.582031 13.222656 39.582031 16.667969 L 39.582031 33.332031 C 39.582031 36.777344 36.777344 39.582031 33.332031 39.582031 L 16.667969 39.582031 C 13.222656 39.582031 10.417969 36.777344 10.417969 33.332031 L 10.417969 16.667969 C 10.417969 13.222656 13.222656 10.417969 16.667969 10.417969 Z M 35.417969 12.5 C 34.265625 12.5 33.332031 13.433594 33.332031 14.582031 C 33.332031 15.734375 34.265625 16.667969 35.417969 16.667969 C 36.566406 16.667969 37.5 15.734375 37.5 14.582031 C 37.5 13.433594 36.566406 12.5 35.417969 12.5 Z M 25 14.582031 C 19.257812 14.582031 14.582031 19.257812 14.582031 25 C 14.582031 30.742188 19.257812 35.417969 25 35.417969 C 30.742188 35.417969 35.417969 30.742188 35.417969 25 C 35.417969 19.257812 30.742188 14.582031 25 14.582031 Z M 25 18.75 C 28.445312 18.75 31.25 21.554688 31.25 25 C 31.25 28.445312 28.445312 31.25 25 31.25 C 21.554688 31.25 18.75 28.445312 18.75 25 C 18.75 21.554688 21.554688 18.75 25 18.75 Z M 25 18.75 "/>
</g>
</svg>
